{"title":"CBGB.2013.BRRip.XviD.MP3-RARBG","uid":13263398,"size":1389821456,"categoryP":"video","categoryS":"movies","magnet":"?xt=urn:btih:38d2ef3309c4bd0dd1172c97b1230b94a41c4716&amp;dn=CBGB.2013.BRRip.XviD.MP3-RARBG&amp;tr=udp%3A%2F%2Ftracker.leechers-paradise.org%3A6969&amp;tr=udp%3A%2F%2Fzer0day.ch%3A1337&amp;tr=udp%3A%2F%2Fopen.demonii.com%3A1337&amp;tr=udp%3A%2F%2Ftracker.coppersurfer.tk%3A6969&amp;tr=udp%3A%2F%2Fexodus.desync.com%3A6969","seeders":0,"leechers":0,"uploader":null,"files":4,"time":1453312607,"description":"Video\r\nID                                       : 0\r\nFormat                                   : MPEG-4 Visual\r\nFormat profile                           :   \r\nFormat settings, BVOP                    : No\r\nFormat settings, QPel                    : No\r\nFormat settings, GMC                     : No warppoints\r\nFormat settings, Matrix                  : Default (H.263)\r\nCodec ID                                 : XVID\r\nCodec ID/Hint                            : XviD\r\nDuration                                 : 1h 42mn\r\nBit rate                                 : 1 598 Kbps\r\nWidth                                    : 720 pixels\r\nHeight                                   : 304 pixels\r\nDisplay aspect ratio                     : 2.40:1\r\nOriginal display aspect ratio            : 2.40:1\r\nFrame rate                               : 23.976 fps\r\nColor space                              : YUV\r\nChroma subsampling                       : 4:2:0\r\nBit depth                                : 8 bits\r\nScan type                                : Progressive\r\nCompression mode                         : Lossy\r\nBits/(Pixel*Frame)                       : 0.304\r\nStream size                              : 1.14 GiB (89%)\r\nTitle                                    : RARBG.COM - CBGB.2013.BRRip.XviD.MP3-RARBG\r\nWriting library                          : Lavc56.60.100\r\n\r\nAudio\r\nID                                       : 1\r\nFormat                                   : MPEG Audio\r\nFormat version                           : Version 1\r\nFormat profile                           : Layer 3\r\nMode                                     : Joint stereo\r\nMode extension                           : MS Stereo\r\nCodec ID                                 : 55\r\nCodec ID/Hint                            : MP3\r\nDuration                                 : 1h 42mn\r\nBit rate mode                            : Constant\r\nBit rate                                 : 192 Kbps\r\nChannel(s)                               : 2 channels\r\nSampling rate                            : 48.0 KHz\r\nCompression mode                         : Lossy\r\nStream size                              : 141 MiB (11%)\r\nAlignment                                : Aligned on interleaves\r\nInterleave, duration                     : 24 ms (0.58 video frame)\r\nInterleave, preload duration             : 24 ms\r\nTitle                                    : RARBG.COM - CBGB.2013.BRRip.XviD.MP3-RARBG\r\nWriting library                          : LAME3.99.5","torrent":{"xt":"urn:btih:38d2ef3309c4bd0dd1172c97b1230b94a41c4716","amp;dn":"CBGB.2013.BRRip.XviD.MP3-RARBG","amp;tr":["udp%3A%2F%2Ftracker.leechers-paradise.org%3A6969","udp%3A%2F%2Fzer0day.ch%3A1337","udp%3A%2F%2Fopen.demonii.com%3A1337","udp%3A%2F%2Ftracker.coppersurfer.tk%3A6969","udp%3A%2F%2Fexodus.desync.com%3A6969"],"infoHash":"38d2ef3309c4bd0dd1172c97b1230b94a41c4716","infoHashBuffer":{"type":"Buffer","data":[56,210,239,51,9,196,189,13,209,23,44,151,177,35,11,148,164,28,71,22]},"announce":[],"urlList":[]}}